<svg width="15" height="16" viewBox="0 0 15 16" fill="none" xmlns="http://www.w3.org/2000/svg">
<rect x="2" y="10.5005" width="1" height="5" fill="#B3B3B3"/>
<rect x="5" y="12.5005" width="1" height="5" transform="rotate(90 5 12.5005)" fill="#B3B3B3"/>
<rect x="8" y="14.5005" width="7" height="1" fill="#B3B3B3"/>
<rect x="14" y="11.5005" width="1" height="4" fill="#B3B3B3"/>
<path d="M9 9.50049L9.98383 8.48745L15 11.5L14.2632 12.4064L9 9.50049Z" fill="#B3B3B3"/>
<path d="M9 9.50049C10.1665 9.18791 11.5135 8.79282 12.1875 7.79075C12.8616 6.78868 13.1502 5.57649 13 4.37817C12.8498 3.17985 12.271 2.07639 11.3704 1.27168C10.4699 0.466966 9.30854 0.0153887 8.10094 0.000386159C6.89334 -0.0146163 5.72112 0.40797 4.80087 1.19006C3.88062 1.97216 3.27455 3.0609 3.09463 4.25511C2.91471 5.44933 3.17311 6.66831 3.82208 7.68682C4.47105 8.70533 5.84158 9.15903 7 9.50049V8.00049C6.18911 7.76147 5.54139 7.59373 5.0871 6.88078C4.63282 6.16782 4.45195 5.31453 4.57789 4.47858C4.70383 3.64263 5.12809 2.88051 5.77226 2.33304C6.41643 1.78558 7.23699 1.48977 8.08231 1.50027C8.92763 1.51077 9.74058 1.82688 10.371 2.39018C11.0013 2.95348 11.4065 3.7259 11.5117 4.56472C11.6168 5.40354 11.4148 6.25207 10.9429 6.95353C10.4711 7.65498 9.81658 7.78169 9 8.00049V9.50049Z" fill="#B3B3B3"/>
</svg>
