<svg width="24" height="22" viewBox="0 0 24 22" fill="none" xmlns="http://www.w3.org/2000/svg">
<g filter="url(#filter0_d_150_115)">
<path d="M18 1H12L11 1.5V12.5L12 13H18L19 12.5L20 13L18 14H12L10 13V1L12 0H18L20 1V13L19 12.5V1.5L18 1Z" fill="#BABABA"/>
<rect x="14" y="3" width="2" height="2" fill="#BABABA"/>
<circle cx="15" cy="9" r="2" fill="#BABABA"/>
<rect x="6" y="13" width="2" height="1" fill="#BABABA"/>
<path d="M4 1L5.5 0H8V0.5V1H6L5 1.5V8.5L6 9H8V9.5V10H5.5L4 9V1Z" fill="#BABABA"/>
</g>
<defs>
<filter id="filter0_d_150_115" x="0" y="0" width="24" height="22" filterUnits="userSpaceOnUse" color-interpolation-filters="sRGB">
<feFlood flood-opacity="0" result="BackgroundImageFix"/>
<feColorMatrix in="SourceAlpha" type="matrix" values="0 0 0 0 0 0 0 0 0 0 0 0 0 0 0 0 0 0 127 0" result="hardAlpha"/>
<feOffset dy="4"/>
<feGaussianBlur stdDeviation="2"/>
<feComposite in2="hardAlpha" operator="out"/>
<feColorMatrix type="matrix" values="0 0 0 0 0 0 0 0 0 0 0 0 0 0 0 0 0 0 0.25 0"/>
<feBlend mode="normal" in2="BackgroundImageFix" result="effect1_dropShadow_150_115"/>
<feBlend mode="normal" in="SourceGraphic" in2="effect1_dropShadow_150_115" result="shape"/>
</filter>
</defs>
</svg>
