<svg width="16" height="14" viewBox="0 0 16 14" fill="none" xmlns="http://www.w3.org/2000/svg">
<path d="M11.4284 13C12.6408 13 13.8035 12.3679 14.6608 11.2426C15.5182 10.1174 15.9998 8.5913 15.9998 7C15.9998 5.4087 15.5182 3.88258 14.6609 2.75736C13.8035 1.63214 12.6408 1 11.4284 1L11.4284 3.41252C12.1533 3.41252 12.8485 3.79049 13.3611 4.46327C13.8737 5.13605 14.1617 6.04854 14.1617 7C14.1617 7.95146 13.8737 8.86395 13.3611 9.53673C12.8485 10.2095 12.1533 10.5875 11.4284 10.5875L11.4284 13Z" fill="#BABABA"/>
<path d="M8 0H10V3V11H9H8V3L2 7L8 11H10V14H8L0 9V5L8 0Z" fill="#BABABA"/>
<rect x="12" y="6" width="1" height="2" fill="#BABABA"/>
</svg>
