<svg width="22" height="22" viewBox="0 0 22 22" fill="none" xmlns="http://www.w3.org/2000/svg">
<rect width="2" height="16" transform="matrix(1 0 0 -1 1 22)" fill="#D9D9D9"/>
<rect width="2" height="11.2292" transform="matrix(-0.396535 -0.91802 -0.891506 0.453009 11.7927 2.72409)" fill="#D9D9D9"/>
<rect x="20.9998" y="22" width="2" height="16" transform="rotate(180 20.9998 22)" fill="#D9D9D9"/>
<rect width="2" height="11.3223" transform="matrix(0.396535 -0.91802 0.891506 0.453009 10.2058 2.72363)" fill="#D9D9D9"/>
<rect x="13" y="20" width="8" height="2" fill="#D9D9D9"/>
<rect x="12" y="13" width="2" height="9" fill="#D9D9D9"/>
<rect width="8" height="2" transform="matrix(-1 0 0 1 9 20)" fill="#D9D9D9"/>
<rect width="2" height="9" transform="matrix(-1 0 0 1 10 13)" fill="#D9D9D9"/>
<rect x="8" y="13" width="6" height="2" fill="#D9D9D9"/>
</svg>
