<svg width="24" height="24" viewBox="0 0 24 24" fill="none" xmlns="http://www.w3.org/2000/svg">
<path d="M0 2C0 0.89543 0.895431 0 2 0H22C23.1046 0 24 0.895431 24 2V22C24 23.1046 23.1046 24 22 24H2C0.89543 24 0 23.1046 0 22V2Z" fill="url(#paint0_linear_111_71)"/>
<path d="M17.5 9.54841C17.5 10.653 12 17.5484 12 17.5484C12 17.5484 6 10.653 6 9.54841C6.00005 5.54778 10.8077 4.87074 12 8.04841C13.0007 4.85486 17.5 5.4259 17.5 9.54841Z" fill="#D9D9D9"/>
<defs>
<linearGradient id="paint0_linear_111_71" x1="0.500001" y1="-7.07184e-07" x2="24" y2="24" gradientUnits="userSpaceOnUse">
<stop stop-color="#3918A9"/>
<stop offset="0.0001" stop-color="#3918A9"/>
<stop offset="1" stop-color="#839C98"/>
</linearGradient>
</defs>
</svg>
