<svg width="14" height="14" viewBox="0 0 14 14" fill="none" xmlns="http://www.w3.org/2000/svg">
<path d="M8 0H10V3V11H9H8V3L2 7L8 11H10V14H8L0 9V5L8 0Z" fill="#BABABA"/>
<path d="M11 11C11.7956 11 12.5587 10.5786 13.1213 9.82843C13.6839 9.07828 14 8.06087 14 7C14 5.93913 13.6839 4.92172 13.1213 4.17157C12.5587 3.42143 11.7957 3 11 3L11 4.60835C11.4757 4.60835 11.932 4.86033 12.2684 5.30885C12.6048 5.75737 12.7937 6.36569 12.7937 7C12.7937 7.63431 12.6048 8.24263 12.2684 8.69115C11.932 9.13967 11.4757 9.39165 11 9.39165L11 11Z" fill="#BABABA"/>
</svg>
