<svg width="32" height="32" viewBox="0 0 32 32" fill="none" xmlns="http://www.w3.org/2000/svg">
<circle cx="16" cy="16" r="15.5" fill="#050303" stroke="#0B0B0B"/>
<path d="M19.4989 5.92679L20.883 7.37045L11.4307 16.433L10.0466 14.9893L19.4989 5.92679Z" fill="#BE0505"/>
<path d="M19.4989 5.92679L20.883 7.37045L11.4307 16.433L10.0466 14.9893L19.4989 5.92679Z" fill="#BE0505"/>
<path d="M19.4989 5.92679L20.883 7.37045L11.4307 16.433L10.0466 14.9893L19.4989 5.92679Z" fill="white"/>
<path d="M19.3428 26.5294L20.7689 25.1271L11.4197 15.6195L9.9937 17.0218L19.3428 26.5294Z" fill="#BE0505"/>
<path d="M19.3428 26.5294L20.7689 25.1271L11.4197 15.6195L9.9937 17.0218L19.3428 26.5294Z" fill="#BE0505"/>
<path d="M19.3428 26.5294L20.7689 25.1271L11.4197 15.6195L9.9937 17.0218L19.3428 26.5294Z" fill="white"/>
<rect class="SVG" x="10.5" y="15.5" width="1" height="1" fill="white" stroke="white"/>
</svg>
