<svg width="23" height="23" viewBox="0 0 23 23" fill="none" xmlns="http://www.w3.org/2000/svg">
<path d="M19 9.5C19 4.25329 14.7467 0 9.5 0C4.25329 0 0 4.25329 0 9.5C0 14.7467 4.25329 19 9.5 19C14.7467 19 19 14.7467 19 9.5ZM2.85 9.5C2.85 5.82731 5.82731 2.85 9.5 2.85C13.1727 2.85 16.15 5.82731 16.15 9.5C16.15 13.1727 13.1727 16.15 9.5 16.15C5.82731 16.15 2.85 13.1727 2.85 9.5Z" fill="#B3B3B3"/>
<rect x="15.7072" y="14" width="9.02321" height="3" transform="rotate(45 15.7072 14)" fill="#B3B3B3"/>
</svg>
