<svg width="17" height="14" viewBox="0 0 17 14" fill="none" xmlns="http://www.w3.org/2000/svg">
<path d="M0 11H2L5.5 6.5L9 2H15V4H9.5L3 13H0V11Z" fill="#BABABA"/>
<path d="M0 11H2L5.5 6.5L9 2H15V4H9.5L3 13H0V11Z" fill="#BABABA"/>
<path d="M0 11H2L5.5 6.5L9 2H15V4H9.5L3 13H0V11Z" fill="#BABABA"/>
<path d="M0 11H2L5.5 6.5L9 2H15V4H9.5L3 13H0V11Z" fill="#BABABA"/>
<path d="M0 3V1H3L5.5 4.5L3.95 5.5L2 3.00002L1.5 3H0Z" fill="#BABABA"/>
<path d="M15 10V12H9L7 9.5L8.5 8.5L9.5 10H11H15Z" fill="#BABABA"/>
<path d="M15 12V10H9.5L8 8L7 9.5L9 12H15Z" fill="#BABABA"/>
<path d="M12 8H12.8571L16.5 11L12.8571 14H12V8Z" fill="#BABABA"/>
<path d="M12 8H12.8571L16.5 11L12.8571 14H12V8Z" fill="#BABABA"/>
<path d="M12 0H12.8571L16.5 3L12.8571 6H12V0Z" fill="#BABABA"/>
<path d="M12 0H12.8571L16.5 3L12.8571 6H12V0Z" fill="#BABABA"/>
</svg>
